<?xml version="1.0" encoding="UTF-8"?>
<svg version="1.1" xmlns="http://www.w3.org/2000/svg" width="1203" height="689">
<path d="M0 0 C9.82744598 2.78630056 18.04448936 1.75028063 27.75195312 -0.95507812 C37.0203208 -3.3992656 46.50977463 -5.65194952 55.75195312 -1.95507812 C58.69205993 -0.08578916 61.16477288 1.87056138 62.75195312 5.04492188 C66.95378013 3.68137478 66.95378013 3.68137478 71.03320312 1.99804688 C77.41714369 -0.24000126 85.95259666 -0.21886158 92.18945312 2.54492188 C96.57233676 5.18960432 99.61428377 9.07103404 102.75195312 13.04492188 C103.78483747 14.34362205 104.82603833 15.63576834 105.87695312 16.91992188 C106.31265625 17.47421875 106.74835938 18.02851563 107.19726562 18.59960938 C112.14895007 23.20293411 118.82705151 22.36657404 125.15820312 22.50585938 C129.38635797 23.1400826 130.96024345 23.81241594 133.75195312 27.04492188 C134.99932242 30.54584102 135.47821968 34.18517872 136.046875 37.84570312 C136.83407257 42.02700369 137.2294876 43.60150891 140.59179688 46.45507812 C143.16820912 47.75124597 145.68673305 48.95101241 148.37695312 49.98242188 C152.34216874 51.72471358 154.68254356 53.07855354 156.75195312 57.04492188 C158.08753252 63.23132562 157.63725574 68.84780354 156.75195312 75.04492188 C155.90756559 82.52378286 157.80702188 86.76889489 161.75195312 93.04492188 C165.08150458 98.82782703 167.78625165 104.39905636 166.27539062 111.18554688 C165.12807337 114.589675 164.18249939 116.65025447 161.50195312 119.10742188 C160.92445313 119.74679687 160.34695313 120.38617187 159.75195312 121.04492188 C159.94429434 124.39770492 159.94429434 124.39770492 160.75195312 128.04492188 C160.98395207 131.97343728 160.85161687 135.55566348 160.06445312 139.41992188 C159.75749838 142.98059697 160.07068158 144.45452581 161.18945312 147.73242188 C164.54526917 158.27474965 163.00398193 166.04802506 158.22900391 175.75048828 C153.12899581 185.53081403 146.28323017 193.72983129 138.79492188 201.79101562 C134.52702269 206.49957744 131.59101173 211.03511958 128.87695312 216.73242188 C117.64353628 239.61444306 103.29256297 251.94440998 79.75195312 261.04492188 C79.12675781 261.28726562 78.5015625 261.52960938 77.85742188 261.77929688 C63.11103365 267.36740189 49.3631516 269.29121835 33.69726562 268.98974609 C27.26805812 268.91005445 21.67210405 269.73319138 15.42382812 271.30273438 C-10.40465385 276.52338499 -38.01117849 271.26385704 -60.05029297 256.86767578 C-80.34897471 242.76393534 -96.94806681 221.70313959 -101.63232422 197.02001953 C-102.14430883 194.11303317 -102.62955286 191.20203865 -103.10913086 188.28955078 C-105.2318756 175.77429018 -109.08655314 164.85048348 -118.37304688 155.98242188 C-123.75106063 150.81248603 -125.95658979 147.12532102 -126.49804688 139.54492188 C-126.24804688 136.04492188 -126.24804688 136.04492188 -125.43945312 132.39648438 C-124.75763611 126.99907682 -127.19460825 123.40371941 -129.93554688 118.91992188 C-130.38349609 118.14777344 -130.83144531 117.375625 -131.29296875 116.58007812 C-133.2603602 113.21804383 -135.27938099 110.00126655 -137.55273438 106.83398438 C-140.29804196 102.31751061 -139.84305886 98.16355066 -139.24804688 93.04492188 C-138.29152448 89.53767308 -137.47943118 87.88204717 -134.46679688 85.83398438 C-128.32192465 82.69475617 -122.05611632 82.2753134 -115.24804688 82.04492188 C-115.29445313 81.35527344 -115.34085938 80.665625 -115.38867188 79.95507812 C-115.82129344 68.69146664 -111.86883339 62.37893096 -104.95507812 53.72070312 C-103.0196522 50.68691191 -102.4207424 48.62835402 -102.24804688 45.04492188 C-102.95320793 42.89549904 -102.95320793 42.89549904 -104.18554688 41.04492188 C-106.11734929 37.49202653 -107.05266137 35.15739594 -106.24804688 31.04492188 C-102.63564436 25.67792385 -99.67309225 23.76393849 -93.49414062 22.46679688 C-90.08830292 22.02416093 -87.15875526 22.28665287 -83.74804688 22.60742188 C-80.35404105 22.78853347 -80.35404105 22.78853347 -77.24804688 22.04492188 C-74.98159536 19.64796452 -73.80461747 17.44397943 -72.49414062 14.42773438 C-70.99769972 11.56620161 -70.22185476 11.17290703 -67.24804688 10.04492188 C-64.50244141 9.78955078 -64.50244141 9.78955078 -61.38085938 9.77148438 C-60.24777344 9.75085938 -59.1146875 9.73023438 -57.94726562 9.70898438 C-55.5723375 9.68302888 -53.19731259 9.66474813 -50.82226562 9.65429688 C-42.23093247 9.51598408 -42.23093247 9.51598408 -35.24804688 5.04492188 C-34.46429687 4.03429687 -33.68054688 3.02367187 -32.87304688 1.98242188 C-23.92870628 -8.02672117 -11.09273567 -3.37284112 0 0 Z " fill="#88D756" transform="translate(742.248046875,415.955078125)"/>
<path d="M0 0 C0.99 0.495 0.99 0.495 2 1 C1.96519531 1.96679688 1.93039062 2.93359375 1.89453125 3.9296875 C1.73439069 11.63168608 1.67847181 18.87358691 5 26 C5.65162109 27.61841797 5.65162109 27.61841797 6.31640625 29.26953125 C9.519992 32.52907483 10.28722978 32.40006664 14.69921875 32.4453125 C17.02957547 32.36124044 19.35915025 32.2531327 21.6875 32.125 C48.39920341 31.38286064 70.93488098 40.78313348 90.46435547 59.07910156 C111.70338315 79.59552958 122.59702225 108.64159228 123.35351562 137.8503418 C123.57826217 165.56823086 115.89025019 194.34338134 98 216 C97.14701752 217.06631195 96.29415969 218.13272362 95.44140625 219.19921875 C73.06878322 246.77122652 40.22284164 264.62364319 5 269 C-35.24224986 271.09564941 -71.89256092 262.17528182 -102.63745117 234.96362305 C-127.35869304 212.61755169 -142.25057496 183.49508911 -144 150 C-145.0624449 119.31787903 -136.52399942 89.29751285 -116 66 C-114.93652344 64.73929688 -114.93652344 64.73929688 -113.8515625 63.453125 C-99.43589312 46.7612973 -80.64018417 37.25121471 -59.4921875 31.91015625 C-55.92758711 30.98112729 -52.48422923 29.87868514 -49.02734375 28.61328125 C-43.50784457 26.94360616 -38.02585449 26.80768165 -32.3125 26.8125 C-31.52246582 26.81185547 -30.73243164 26.81121094 -29.91845703 26.81054688 C-23.78905322 26.86562014 -17.96414826 27.52866827 -12 29 C-7.97589244 20.07697889 -7.7749665 10.67644032 -8 1 C-5.26094655 -0.36952673 -3.02912668 -0.12621361 0 0 Z " fill="#C53635" transform="translate(447,0)"/>
<path d="M0 0 C175.26808511 0 175.26808511 0 199 22 C199.76699219 22.68835938 200.53398437 23.37671875 201.32421875 24.0859375 C212.96256141 35.0509876 219.80323885 49.87775149 220.30078125 65.890625 C220.49246412 86.53921905 218.1159774 104.25630337 203.34106445 119.86328125 C197.02504966 126.20839217 190.05130631 131.13302222 182 135 C185.10123844 136.63013816 188.29973488 137.96571314 191.53344727 139.30883789 C199.02410655 142.45566674 205.59801424 145.92379861 212 151 C212.6084375 151.43441406 213.216875 151.86882812 213.84375 152.31640625 C226.71644606 162.11720893 232.88465803 178.51595555 235 194 C236.6477564 214.69596574 234.0287975 235.27585521 220.29321289 251.78588867 C201.62751316 272.80454893 172.85454022 279.00667174 146 281 C135.33422395 281.45379397 124.65716017 281.36356088 113.98431396 281.30384064 C110.35444471 281.28642178 106.7246381 281.28593357 103.09472656 281.28381348 C92.56311363 281.26823334 82.0315528 281.2263504 71.5 281.1875 C47.905 281.125625 24.31 281.06375 0 281 C0 188.27 0 95.54 0 0 Z M31 25 C31 58.33 31 91.66 31 126 C47.108125 126.061875 63.21625 126.12375 79.8125 126.1875 C84.86022705 126.21481201 89.9079541 126.24212402 95.10864258 126.27026367 C99.71474153 126.28030954 99.71474153 126.28030954 104.32084656 126.28633118 C106.3400319 126.29087642 108.35921018 126.30129622 110.37834167 126.31672668 C135.19518569 126.49655976 159.6814528 124.91234038 178.828125 107.3203125 C187.19949037 98.48387127 190.55062134 85.70044077 190.25 73.76953125 C189.40544428 64.4134374 187.45551466 55.7399175 182 48 C181.54238281 47.32582031 181.08476562 46.65164063 180.61328125 45.95703125 C170.87477997 33.27490238 153.15080916 28.08346216 138 26 C126.41468828 24.69675619 114.80787346 24.87120994 103.16796875 24.90234375 C101.31465688 24.90381742 99.4613446 24.90483551 97.60803223 24.90539551 C90.80118173 24.9105992 83.99434019 24.92456033 77.1875 24.9375 C54.3246875 24.9684375 54.3246875 24.9684375 31 25 Z M31 151 C31 185.65 31 220.3 31 256 C47.54125 256.04125 64.0825 256.0825 81.125 256.125 C86.30203613 256.14320801 91.47907227 256.16141602 96.81298828 256.18017578 C101.55076468 256.18687438 101.55076468 256.18687438 106.2885437 256.19088745 C108.36008571 256.19391099 110.43162474 256.20084269 112.50314331 256.21115112 C123.72248497 256.26407405 134.84583379 256.10143797 146.02685547 255.10498047 C146.91208452 255.0262224 147.79731358 254.94746433 148.70936775 254.86631966 C156.41715088 254.0998827 163.63436786 252.43715769 171 250 C171.9075 249.71382812 172.815 249.42765625 173.75 249.1328125 C185.1820813 245.09585879 194.48725943 237.35850377 200.2421875 226.69921875 C206.44549307 212.86630012 206.4041904 196.88115775 201.22265625 182.78515625 C195.70379608 170.21343963 186.44458498 163.2294541 174 158 C153.54986784 150.47612749 132.35272226 150.85048696 110.8828125 150.90234375 C108.83195015 150.90381729 106.78108742 150.90483546 104.73022461 150.90539551 C97.19514394 150.91060065 89.66007136 150.9245618 82.125 150.9375 C65.25375 150.958125 48.3825 150.97875 31 151 Z " fill="#000000" transform="translate(15,403)"/>
<path d="M0 0 C10.18839445 9.54525101 18.49556719 19.68499571 25.75 31.5625 C26.11367676 32.15514648 26.47735352 32.74779297 26.85205078 33.35839844 C35.85237376 48.31878763 41.12177523 65.35773631 43.75 82.5625 C44.02457031 84.30853516 44.02457031 84.30853516 44.3046875 86.08984375 C47.85688482 115.7375745 43.54684319 146.06089413 29.75 172.5625 C29.40420898 173.23200684 29.05841797 173.90151367 28.70214844 174.59130859 C23.91651504 183.75120906 18.66754783 191.82561486 11.75 199.5625 C10.95722656 200.48675781 10.16445313 201.41101563 9.34765625 202.36328125 C-14.29296454 229.36512775 -50.52866442 246.13959251 -86.25 248.5625 C-130.82389339 250.19576153 -172.59217301 241.57444475 -206.25 210.5625 C-207.19488281 209.70011719 -208.13976562 208.83773437 -209.11328125 207.94921875 C-235.19542096 183.04760021 -249.21303735 147.9691397 -250.47265625 112.21875 C-251.30608195 74.45939748 -240.73463889 40.56236697 -216.25 11.5625 C-215.55132813 10.72847656 -214.85265625 9.89445312 -214.1328125 9.03515625 C-208.72029784 2.7847612 -202.82226437 -2.43319013 -196.25 -7.4375 C-195.47140625 -8.03175781 -194.6928125 -8.62601563 -193.890625 -9.23828125 C-137.51279558 -50.38652923 -51.90325603 -47.15442942 0 0 Z M-179.25 16.5625 C-180.25804687 17.40683594 -181.26609375 18.25117187 -182.3046875 19.12109375 C-202.44535902 36.52329859 -216.3013439 61.98123254 -219.25 88.5625 C-219.41242187 89.88701172 -219.41242187 89.88701172 -219.578125 91.23828125 C-222.70834213 120.35753794 -216.58338217 151.68975222 -198.28125 175.1484375 C-194.70962849 179.39317229 -191.05636979 183.5266682 -187.25 187.5625 C-186.62609375 188.25085938 -186.0021875 188.93921875 -185.359375 189.6484375 C-165.86301782 210.37355669 -135.35723003 220.50652091 -107.59375 221.72265625 C-76.45966522 222.59872357 -45.51102928 213.35404163 -22.36328125 192.046875 C1.08505673 169.73186851 13.80690183 140.91841402 14.74609375 108.51953125 C15.0461927 80.91588433 7.07270402 52.66414747 -11.25 31.5625 C-11.89388672 30.80767334 -11.89388672 30.80767334 -12.55078125 30.03759766 C-32.14943512 7.18426819 -58.55138566 -5.73237946 -88.25 -9.4375 C-92.81670196 -9.72254028 -97.3627686 -9.77208186 -101.9375 -9.75 C-103.16774902 -9.74436035 -104.39799805 -9.7387207 -105.66552734 -9.73291016 C-132.43593687 -9.37737941 -158.58245057 -0.75431594 -179.25 16.5625 Z " fill="#000000" transform="translate(855.25,40.4375)"/>
<path d="M0 0 C0.78944 -0.00570007 1.57888 -0.01140015 2.39224243 -0.01727295 C4.05786832 -0.02666461 5.7235123 -0.03323352 7.38916016 -0.03710938 C9.87307522 -0.04671647 12.35612559 -0.07775416 14.83984375 -0.109375 C29.02686138 -0.20340872 42.86065664 1.47337562 56.5390625 5.390625 C57.26706055 5.5971167 57.99505859 5.8036084 58.74511719 6.01635742 C93.23151543 16.29354061 123.21381813 39.74845538 140.8125 71.16796875 C159.08117704 105.37796683 163.97184478 147.02396636 153.06640625 184.421875 C141.72433708 221.13322517 117.78173209 250.94082517 83.8515625 269.0390625 C64.56684737 278.92158949 43.10274136 285.27087619 21.33203125 285.40625 C20.57327698 285.41330963 19.81452271 285.42036926 19.03277588 285.42764282 C-12.88046354 285.65720807 -12.88046354 285.65720807 -26.4609375 282.203125 C-27.65396484 281.90510986 -27.65396484 281.90510986 -28.87109375 281.60107422 C-53.94721849 275.13341067 -75.4393703 263.74623256 -94.4609375 246.203125 C-95.21890625 245.51605469 -95.976875 244.82898438 -96.7578125 244.12109375 C-120.34543037 221.71285678 -135.86482866 187.17822855 -136.7253418 154.73258972 C-136.77492724 151.60415146 -136.78524027 148.47693507 -136.77661133 145.34814453 C-136.77345974 142.96990669 -136.7969773 140.59292834 -136.82226562 138.21484375 C-136.97225784 101.88151817 -122.60444348 68.05560285 -97.31640625 42.05859375 C-96.36712067 41.10424024 -95.415435 40.1522658 -94.4609375 39.203125 C-93.65269531 38.39488281 -92.84445312 37.58664062 -92.01171875 36.75390625 C-67.93908197 13.95453291 -33.04138587 0.19145484 0 0 Z M-77.87109375 64.2734375 C-100.90178366 90.32625414 -108.3072672 122.05940469 -106.4609375 156.203125 C-104.17228317 182.72198421 -91.76596612 206.29793151 -73.4609375 225.203125 C-72.67460937 226.01523437 -71.88828125 226.82734375 -71.078125 227.6640625 C-48.68274705 249.37456651 -17.57511151 258.61319143 13.07885742 258.50561523 C34.54408643 258.11093258 53.83203117 252.559354 72.5390625 242.203125 C73.52648437 241.65914062 74.51390625 241.11515625 75.53125 240.5546875 C83.47477857 235.8346198 90.01004853 229.67432073 96.5390625 223.203125 C97.6528125 222.10871094 97.6528125 222.10871094 98.7890625 220.9921875 C119.88237541 198.79317674 128.38085056 167.50505582 127.78515625 137.578125 C126.65974809 106.40263925 113.68665309 78.15762856 91.25 56.5703125 C42.45849553 13.96562704 -33.24582941 18.0099476 -77.87109375 64.2734375 Z " fill="#000000" transform="translate(406.4609375,400.796875)"/>
<path d="M0 0 C9.9 0 19.8 0 30 0 C30.33 55.11 30.66 110.22 31 167 C34.96 162.71 38.92 158.42 43 154 C45.26209801 151.67867314 47.52280594 149.37687515 49.83203125 147.10546875 C50.68059944 146.26258049 50.68059944 146.26258049 51.54631042 145.40266418 C53.29916856 143.66169178 55.05534512 141.92413479 56.8125 140.1875 C65.38306785 131.8573934 65.38306785 131.8573934 73.44921875 123.05078125 C79.45762682 115.98823394 86.30666639 109.64250329 92.89355469 103.12695312 C100.93204411 95.2854872 100.93204411 95.2854872 108.5 87 C114.48489321 79.95012579 121.32447152 73.62489099 127.89355469 67.12695312 C135.91778924 59.30229218 135.91778924 59.30229218 143.46875 51.03125 C149.63614913 43.76639388 156.69828071 37.25163928 163.46630859 30.55419922 C171.85467165 22.3551854 171.85467165 22.3551854 179.78125 13.71875 C180.56266357 12.83485596 180.56266357 12.83485596 181.35986328 11.93310547 C182.62431022 10.44279721 183.81839019 8.89260001 184.97998047 7.32080078 C188.52740333 3.01812503 191.51502346 -0.05739896 197.17285156 -0.79394531 C202.00357217 -1.10294417 206.79682038 -0.8759252 211.625 -0.625 C213.31366944 -0.57475163 215.00248353 -0.52913965 216.69140625 -0.48828125 C220.79789043 -0.37894446 224.89732419 -0.20694857 229 0 C225.20514227 4.47221407 221.35455856 8.87872894 217.375 13.1875 C216.86428955 13.74139404 216.3535791 14.29528809 215.82739258 14.8659668 C211.70877859 19.30193003 207.45200396 23.58257422 203.14550781 27.83520508 C200.52705881 30.43256532 198.00876155 33.06108599 195.625 35.875 C192.29263772 39.79832308 188.6558494 43.38208911 185 47 C180.78989047 51.1664645 176.72758786 55.35285406 172.90234375 59.87890625 C169.67429841 63.47814366 166.1922629 66.82668211 162.75537109 70.22509766 C159.913276 73.0475639 157.15009878 75.87583732 154.5625 78.9375 C150.686001 83.51351762 146.3747532 87.64986201 142.11572266 91.86474609 C138.54318081 95.41441758 135.15403123 99.03148977 131.90234375 102.87890625 C129.21843331 105.87143884 126.35712149 108.67372516 123.5 111.5 C116.26943778 118.34054892 116.26943778 118.34054892 110 126 C110 130.13193072 112.20421739 131.92836445 114.8125 134.875 C115.82698805 136.04673205 116.84130623 137.21861118 117.85546875 138.390625 C118.37802246 138.98939453 118.90057617 139.58816406 119.43896484 140.20507812 C121.86058867 142.98952891 124.24331093 145.80639301 126.625 148.625 C127.31420532 149.43807617 127.31420532 149.43807617 128.01733398 150.26757812 C130.84210911 153.60608569 133.62094715 156.97766474 136.375 160.375 C140.54221124 165.49813067 144.86312457 170.47594928 149.20263672 175.45263672 C153.10409054 179.93731517 156.88477907 184.50472708 160.625 189.125 C163.52495875 192.63547639 166.50758138 196.06832727 169.5 199.5 C173.97534516 204.63227656 178.34007126 209.83185274 182.625 215.125 C185.52495875 218.63547639 188.50758138 222.06832727 191.5 225.5 C195.97534516 230.63227656 200.34007126 235.83185274 204.625 241.125 C208.07112226 245.29662168 211.63554872 249.36251193 215.19213867 253.43994141 C219.20145213 258.04773891 223.08538045 262.73529078 226.921875 267.48828125 C229.69211578 270.83652339 232.6113768 274.03721515 235.56640625 277.22265625 C237 279 237 279 237 281 C231.95106594 281.34987283 226.90935444 281.60167692 221.85107422 281.76904297 C220.13725849 281.83885675 218.42425875 281.93397016 216.71337891 282.05615234 C202.92105054 283.01540838 202.92105054 283.01540838 198.0640564 279.66427612 C194.56773745 276.40267945 191.83506477 272.68416578 189.19314575 268.71713257 C187.45126554 266.21028105 185.40506932 264.02845362 183.3125 261.8125 C180.28287132 258.47772886 177.39391908 255.06712361 174.5625 251.5625 C170.70058325 246.78715598 166.62325776 242.26332315 162.46484375 237.74609375 C160.07292703 235.08124834 157.80745116 232.35168175 155.5625 229.5625 C151.90428985 225.02683557 148.05257035 220.7429883 144.08618164 216.48071289 C140.30509442 212.39338994 136.80310034 208.11956756 133.3125 203.78125 C130.80028867 200.75980664 128.17597543 197.87559922 125.5 195 C121.2104224 190.38998361 117.19589103 185.62216764 113.24609375 180.71484375 C110.12532581 176.94278511 106.80339313 173.3707584 103.484375 169.7734375 C100.23092943 166.14144638 97.2063991 162.34787671 94.203125 158.5078125 C91.67400407 155.62891952 88.99374527 153.38644266 86 151 C82.97489042 153.99571324 79.95572125 156.99734805 76.9375 160 C76.08994141 160.83917969 75.24238281 161.67835938 74.36914062 162.54296875 C70.65970977 166.23807748 67.06273074 169.87257276 63.80859375 173.9765625 C61.18634038 177.08777566 58.36468824 179.13989503 54.92358398 181.29856873 C44.56525337 187.92127703 33.52009737 196.41276403 30.5320816 208.96578217 C26.29307232 232.30203006 28.63067012 257.46186372 30 281 C20.1 281 10.2 281 0 281 C0 188.27 0 95.54 0 0 Z " fill="#000000" transform="translate(966,403)"/>
<path d="M0 0 C9.9 0 19.8 0 30 0 C30.33 54.78 30.66 109.56 31 166 C50.44107941 146.91265321 50.44107941 146.91265321 69 127 C71.24143201 124.69314382 73.49140333 122.41312159 75.78125 120.15625 C76.70701843 119.2361615 76.70701843 119.2361615 77.65148926 118.29748535 C80.25258789 115.71250482 82.85970014 113.13362178 85.46630859 110.55419922 C94.5412084 101.60369836 94.5412084 101.60369836 103.07617188 92.14648438 C108.70827673 85.862542 114.89627825 80.05927711 120.89355469 74.12695312 C128.93204411 66.2854872 128.93204411 66.2854872 136.5 58 C142.48489321 50.95012579 149.32447152 44.62489099 155.89355469 38.12695312 C166.91734291 27.49751982 166.91734291 27.49751982 176.63037109 15.70703125 C186.75903724 1.46440079 186.75903724 1.46440079 195.08563232 -0.48937988 C206.25339797 -2.10352616 217.81928987 -1.05785467 229 0 C225.81018543 3.78413228 222.62534802 7.49517115 219.0625 10.9375 C216.52415465 13.43767474 214.11763711 15.97154638 211.8125 18.6875 C208.55569917 22.48335752 205.05386979 25.98621899 201.5 29.5 C198.07153786 32.890048 194.67739172 36.25194109 191.5625 39.9375 C187.686001 44.51351762 183.3747532 48.64986201 179.11572266 52.86474609 C175.54318081 56.41441758 172.15403123 60.03148977 168.90234375 63.87890625 C165.67429841 67.47814366 162.1922629 70.82668211 158.75537109 74.22509766 C155.913276 77.0475639 153.15009878 79.87583732 150.5625 82.9375 C147.25427342 86.84269979 143.63486259 90.40280926 140 94 C135.81621701 98.140467 131.77657891 102.29509568 127.984375 106.80078125 C124.46409289 110.70219627 120.66241946 114.33916161 116.88476562 117.99023438 C113.69501625 121.11682039 111.08426005 123.99006491 109 128 C109.81082031 128.93199219 110.62164063 129.86398438 111.45703125 130.82421875 C118.24711366 138.6382844 124.98748687 146.49026017 131.65722656 154.40722656 C133.93421439 157.10814812 136.21745794 159.80377244 138.5 162.5 C139.41669584 163.58330865 140.33336253 164.66664196 141.25 165.75 C141.70375 166.28625 142.1575 166.8225 142.625 167.375 C144 169 145.375 170.625 146.75 172.25 C147.4308667 173.0546167 147.4308667 173.0546167 148.12548828 173.87548828 C149.04064413 174.95709521 149.9556835 176.03880069 150.87060547 177.12060547 C153.18443478 179.85617939 155.50036471 182.58992474 157.8203125 185.3203125 C162.05079624 190.30314347 166.2585368 195.29702715 170.375 200.375 C174.54221124 205.49813067 178.86312457 210.47594928 183.20263672 215.45263672 C187.10409054 219.93731517 190.88477907 224.50472708 194.625 229.125 C197.52495875 232.63547639 200.50758138 236.06832727 203.5 239.5 C207.23404443 243.78216104 210.92458646 248.08331268 214.5 252.5 C218.68415335 257.66820423 223.02486967 262.68975278 227.39648438 267.69921875 C228.93488884 269.46280173 230.46795079 271.23089587 232 273 C232.49564453 273.56509277 232.99128906 274.13018555 233.50195312 274.71240234 C237 278.77254747 237 278.77254747 237 281 C231.89585885 281.27383964 226.79606263 281.47234244 221.6862793 281.60424805 C219.95244842 281.65926213 218.21912088 281.73411011 216.48706055 281.82983398 C202.10528585 282.60420538 202.10528585 282.60420538 196.97607422 278.69580078 C194.70566214 275.90474268 192.83665035 273.08904815 191 270 C189.60647371 268.27710192 189.60647371 268.27710192 188.25 266.90625 C184.19728041 262.57209154 180.28350876 258.18557149 176.5625 253.5625 C172.90428985 249.02683557 169.05257035 244.7429883 165.08618164 240.48071289 C161.30509442 236.39338994 157.80310034 232.11956756 154.3125 227.78125 C151.80028867 224.75980664 149.17597543 221.87559922 146.5 219 C142.2104224 214.38998361 138.19589103 209.62216764 134.24609375 204.71484375 C131.9116941 201.89326505 129.48009402 199.19409288 127 196.5 C123.72581577 192.94329756 120.59357567 189.32838189 117.5625 185.5625 C114.3405582 181.56774676 110.99333916 177.7545686 107.5 174 C102.41350077 168.53048392 97.67889839 162.82283747 93 157 C91.34199521 154.99253284 89.67210952 152.99574362 88 151 C85.01777541 152.3407663 82.93239572 153.81878004 80.62768555 156.12939453 C79.9898967 156.76410675 79.35210785 157.39881897 78.69499207 158.05276489 C78.01576187 158.7391806 77.33653168 159.42559631 76.63671875 160.1328125 C75.92651077 160.8434787 75.2163028 161.5541449 74.48457336 162.28634644 C72.98189043 163.79204906 71.48163732 165.30017998 69.98364258 166.81054688 C67.71154523 169.10076303 65.43168678 171.38301311 63.15039062 173.6640625 C61.68703005 175.13234428 60.22412502 176.60108023 58.76171875 178.0703125 C58.08856125 178.74458282 57.41540375 179.41885315 56.72184753 180.11355591 C53.02202009 183.84985229 49.51103418 187.66444701 46.14318848 191.70243835 C44.39531739 193.57620803 42.68088427 195.14641035 40.7232666 196.78108215 C35.202721 201.5233628 30.51259551 205.59665718 29.55970287 213.10586262 C29.33626192 216.90142673 29.39766897 220.65878693 29.51171875 224.45703125 C29.51353238 226.09755293 29.5095877 227.73809 29.50019836 229.37858582 C29.49091508 233.65303815 29.55870461 237.92275219 29.64379883 242.19622803 C29.71692381 246.57402445 29.71546958 250.95176736 29.72070312 255.33007812 C29.74172014 263.888666 29.85124046 272.44267854 30 281 C20.1 281 10.2 281 0 281 C0 188.27 0 95.54 0 0 Z " fill="#000000" transform="translate(966,6)"/>
<path d="M0 0 C2.63659777 2.36797887 5.23405025 4.77577646 7.8125 7.20703125 C7.24629699 10.98171796 5.68981019 12.68255018 2.99609375 15.31640625 C2.23232422 16.07050781 1.46855469 16.82460938 0.68164062 17.6015625 C-0.12080078 18.37886719 -0.92324219 19.15617187 -1.75 19.95703125 C-2.95946289 21.14619141 -2.95946289 21.14619141 -4.19335938 22.359375 C-6.18483778 24.31550171 -8.18297721 26.26428844 -10.1875 28.20703125 C-13.35716078 26.69534056 -15.52691545 25.08638796 -18.0625 22.64453125 C-29.72369877 12.11121892 -43.71534637 4.98925183 -58.6875 0.45703125 C-59.33887939 0.25819336 -59.99025879 0.05935547 -60.66137695 -0.14550781 C-71.59047641 -3.26466825 -82.61351137 -4.16052356 -93.9375 -4.10546875 C-95.1632373 -4.0998291 -96.38897461 -4.09418945 -97.65185547 -4.08837891 C-107.12075624 -3.96216022 -116.03836194 -3.25567922 -125.1875 -0.79296875 C-125.89455078 -0.60492676 -126.60160156 -0.41688477 -127.33007812 -0.22314453 C-144.35969731 4.49188439 -160.06520107 12.31785615 -173.1875 24.20703125 C-173.79078125 24.66980469 -174.3940625 25.13257813 -175.015625 25.609375 C-195.50852197 41.36209253 -206.98137404 69.66534748 -210.50439453 94.43505859 C-214.2369992 125.290812 -207.0456189 156.95480212 -187.75 181.64453125 C-167.15592773 207.00423284 -139.60724712 220.9445663 -107.25 224.89453125 C-76.87002498 227.23528342 -46.11142046 220.88106691 -22.1875 201.20703125 C-18.79271481 198.27038171 -15.4627634 195.27625856 -12.1875 192.20703125 C-7.14404232 194.44279807 -3.74384112 198.24376043 0.125 202.08203125 C0.87845703 202.80261719 1.63191406 203.52320313 2.40820312 204.265625 C3.11525391 204.96558594 3.82230469 205.66554687 4.55078125 206.38671875 C5.20087158 207.02335449 5.85096191 207.65999023 6.52075195 208.31591797 C7.8125 210.20703125 7.8125 210.20703125 7.58959961 212.34765625 C2.22647383 225.18006779 -19.36354084 235.92905665 -31.49511719 241.21191406 C-51.99275973 249.60843705 -72.70392821 253.64458186 -94.875 253.51953125 C-95.56993561 253.5173761 -96.26487122 253.51522095 -96.98086548 253.51300049 C-121.57859893 253.39126959 -145.30958179 248.80377677 -167.1875 237.20703125 C-167.85120605 236.86269043 -168.51491211 236.51834961 -169.19873047 236.16357422 C-178.36911977 231.37480856 -186.43047654 226.11827334 -194.1875 219.20703125 C-195.01507813 218.5109375 -195.84265625 217.81484375 -196.6953125 217.09765625 C-223.43779763 194.127622 -239.53095426 159.15514599 -242.1875 124.20703125 C-243.94982761 81.98972194 -234.24132626 43.82820592 -205.1875 12.20703125 C-204.39859375 11.335625 -203.6096875 10.46421875 -202.796875 9.56640625 C-152.4512774 -43.44650778 -54.80073458 -48.48398324 0 0 Z " fill="#000000" transform="translate(242.1875,35.79296875)"/>
<path d="M0 0 C4.38288363 2.64468245 7.42483064 6.52611216 10.5625 10.5 C11.59538435 11.79870017 12.6365852 13.09084646 13.6875 14.375 C14.12320313 14.92929687 14.55890625 15.48359375 15.0078125 16.0546875 C19.95949695 20.65801224 26.63759839 19.82165216 32.96875 19.9609375 C37.19690485 20.59516073 38.77079033 21.26749406 41.5625 24.5 C42.8098693 28.00091915 43.28876656 31.64025684 43.85742188 35.30078125 C44.64461944 39.48208181 45.04003448 41.05658703 48.40234375 43.91015625 C50.978756 45.20632409 53.49727993 46.40609054 56.1875 47.4375 C60.15271561 49.17979171 62.49309043 50.53363167 64.5625 54.5 C65.89807939 60.68640374 65.44780262 66.30288166 64.5625 72.5 C63.71811247 79.97886098 65.61756875 84.22397301 69.5625 90.5 C72.89205145 96.28290515 75.59679853 101.85413448 74.0859375 108.640625 C72.93862024 112.04475313 71.99304626 114.10533259 69.3125 116.5625 C68.735 117.201875 68.1575 117.84125 67.5625 118.5 C67.75484122 121.85278304 67.75484122 121.85278304 68.5625 125.5 C68.79449894 129.4285154 68.66216375 133.01074161 67.875 136.875 C67.56804525 140.4356751 67.88122845 141.90960393 69 145.1875 C72.35581605 155.72982778 70.81452881 163.50310319 66.03955078 173.20556641 C60.93954268 182.98589215 54.09377704 191.18490941 46.60546875 199.24609375 C42.33756957 203.95465556 39.40155861 208.4901977 36.6875 214.1875 C25.45408316 237.06952119 11.10310984 249.39948811 -12.4375 258.5 C-13.06269531 258.74234375 -13.68789063 258.9846875 -14.33203125 259.234375 C-29.07841948 264.82248001 -42.82630152 266.74629648 -58.4921875 266.44482422 C-64.921395 266.36513258 -70.51734907 267.1882695 -76.765625 268.7578125 C-102.59410698 273.97846311 -130.20063161 268.71893516 -152.23974609 254.32275391 C-172.53842784 240.21901346 -189.13751993 219.15821771 -193.82177734 194.47509766 C-194.33376195 191.5681113 -194.81900599 188.65711677 -195.29858398 185.74462891 C-197.42132873 173.22936831 -201.27600626 162.30556161 -210.5625 153.4375 C-215.94051376 148.26756416 -218.14604292 144.58039914 -218.6875 137 C-218.4375 133.5 -218.4375 133.5 -217.62890625 129.8515625 C-216.94708923 124.45415494 -219.38406137 120.85879753 -222.125 116.375 C-222.57294922 115.60285156 -223.02089844 114.83070313 -223.48242188 114.03515625 C-225.44981332 110.67312195 -227.46883412 107.45634467 -229.7421875 104.2890625 C-232.48749508 99.77258874 -232.03251199 95.61862878 -231.4375 90.5 C-230.49850445 87.05701631 -229.64268519 85.43541137 -226.83203125 83.25390625 C-218.14001807 78.39512132 -205.84737554 79.6772997 -196.4375 81.5 C-196.5096875 82.56476563 -196.581875 83.62953125 -196.65625 84.7265625 C-196.85777001 87.77375722 -197.02685975 90.82108852 -197.1796875 93.87109375 C-197.31637492 96.59539636 -197.5210679 99.25808027 -197.8203125 101.97265625 C-198.78006945 114.71265571 -192.37255808 125.91751599 -187.19677734 137.20605469 C-184.61672968 142.84681642 -182.13683815 148.51657144 -179.74902344 154.24145508 C-178.35729707 157.56662408 -176.936384 160.87854749 -175.515625 164.19140625 C-173.63977649 168.58575508 -171.84403739 172.99365278 -170.1361084 177.45562744 C-169.10906583 180.11233138 -168.03722957 182.74968512 -166.95800781 185.38555908 C-166.20664868 187.26461162 -165.51261403 189.16626714 -164.8203125 191.06787109 C-162.63304801 196.32914868 -161.10194848 199.61771628 -155.95507812 202.34594727 C-152.18775458 203.7412435 -148.357202 204.63654868 -144.4375 205.5 C-142.97546114 205.92092996 -141.5160574 206.35143669 -140.0625 206.80078125 C-138.268125 207.30158203 -138.268125 207.30158203 -136.4375 207.8125 C-126.89048435 210.55876611 -117.56268665 213.88905524 -108.19433594 217.18408203 C-101.12420184 219.66055869 -94.04454277 222.10917935 -86.96078491 224.54638672 C-85.24564349 225.13745881 -83.53113697 225.73037668 -81.81729126 226.32519531 C-79.38882899 227.16789374 -76.9583493 228.00451516 -74.52734375 228.83984375 C-73.80008087 229.09366318 -73.07281799 229.3474826 -72.32351685 229.60899353 C-65.06010371 232.36085809 -65.06010371 232.36085809 -57.67456055 231.45874023 C-56.26364136 230.64191772 -56.26364136 230.64191772 -54.82421875 229.80859375 C-53.75397461 229.20063965 -52.68373047 228.59268555 -51.58105469 227.96630859 C-50.42891483 227.29024629 -49.27689983 226.61397118 -48.125 225.9375 C-46.92055093 225.24654299 -45.71513053 224.55727665 -44.50878906 223.86962891 C-42.02601427 222.45202828 -39.54816017 221.02635281 -37.07373047 219.59423828 C-31.64641382 216.45920221 -26.16353051 213.423824 -20.6875 210.375 C-12.7191423 205.91357091 -4.76283084 201.43095892 3.1875 196.9375 C4.57666626 196.15391113 4.57666626 196.15391113 5.99389648 195.35449219 C11.02426144 192.51400082 16.04048572 189.65106466 21.04296875 186.76171875 C22.10241699 186.15336182 23.16186523 185.54500488 24.25341797 184.91821289 C26.2992078 183.74299576 28.3413555 182.56141042 30.37939453 181.37280273 C31.29188965 180.85016846 32.20438477 180.32753418 33.14453125 179.7890625 C33.95124268 179.32193848 34.7579541 178.85481445 35.58911133 178.37353516 C36.24032959 178.08526855 36.89154785 177.79700195 37.5625 177.5 C38.2225 177.83 38.8825 178.16 39.5625 178.5 C43.35843976 169.84587793 46.52088147 161.065801 49.47460938 152.09985352 C50.18830088 149.93507075 50.91002499 147.77308874 51.6328125 145.61132812 C60.01452302 120.42550865 63.93767161 97.30444227 51.85766602 72.71289062 C39.42490856 48.66901882 17.83826941 27.52462719 -7.4375 17.5 C-8.571875 16.96375 -9.70625 16.4275 -10.875 15.875 C-15.12828969 14.23337942 -19.39791398 13.33223862 -23.86328125 12.44140625 C-26.4375 11.5 -26.4375 11.5 -27.78125 9.55859375 C-28.735213 6.56610268 -28.80642757 5.38195277 -27.4375 2.5 C-20.13310738 -3.05925448 -8.27028928 -3.60417276 0 0 Z " fill="#39A94F" transform="translate(834.4375,418.5)"/>
<path d="M0 0 C14.83386873 17.00779777 16.06060958 45.62434529 15 67 C13.02274011 90.20958087 4.9338837 113.92214079 -10 132 C-10.85298248 133.06631195 -11.70584031 134.13272362 -12.55859375 135.19921875 C-34.93121678 162.77122652 -67.77715836 180.62364319 -103 185 C-126.20486824 186.20841326 -148.30165808 184.89814358 -170 176 C-170 175.34 -170 174.68 -170 174 C-170.8146875 173.76152344 -171.629375 173.52304687 -172.46875 173.27734375 C-187.8225225 167.7234902 -201.60338903 157.51186164 -213 146 C-211.12973145 146.03927612 -211.12973145 146.03927612 -209.22167969 146.0793457 C-162.52420568 146.97201252 -119.22952155 141.67126052 -80 114 C-78.97777344 113.28199219 -77.95554687 112.56398438 -76.90234375 111.82421875 C-70.00429128 106.81311741 -63.64890074 101.31319981 -57.49560547 95.42822266 C-56.50771658 94.48484198 -55.51461919 93.54688208 -54.51611328 92.61474609 C-29.24462033 68.9930242 -10.96581817 36.13038824 -1.62426758 2.94677734 C-1 1 -1 1 0 0 Z " fill="#AA0F0F" transform="translate(555,84)"/>
<path d="M0 0 C3.81986955 0.00316396 7.63896568 -0.02038053 11.45874023 -0.0456543 C24.12757406 -0.07876936 36.0789625 0.17590672 48.39428711 3.31567383 C49.26496826 3.51443115 50.13564941 3.71318848 51.03271484 3.91796875 C67.3096678 7.72923362 82.25894452 13.83439019 95.39428711 24.31567383 C95.39428711 24.64567383 95.39428711 24.97567383 95.39428711 25.31567383 C94.00209961 25.68692383 94.00209961 25.68692383 92.58178711 26.06567383 C89.31977574 27.00775017 89.31977574 27.00775017 87.89428711 29.44067383 C86.39428711 31.31567383 86.39428711 31.31567383 83.51928711 31.69067383 C80.39428711 31.31567383 80.39428711 31.31567383 78.08178711 30.31567383 C74.20197362 28.8720223 70.48980659 29.15506522 66.39428711 29.31567383 C65.47361899 43.14615488 69.35711715 52.15851349 76.15991211 63.94067383 C78.82797723 69.07416622 79.47457337 74.8405361 77.74584961 80.40161133 C75.48252036 85.45057657 72.51531104 89.94312767 67.39428711 92.31567383 C63.50088709 92.83759989 59.84645918 93.00293902 55.91772461 93.01489258 C51.18963767 93.41850976 48.69640737 95.01355356 45.39428711 98.31567383 C44.96350803 101.42685606 44.65666206 104.50939016 44.44702148 107.6418457 C44.10820411 111.03337411 43.41725114 113.27977092 41.57788086 116.15551758 C36.80033563 119.39721391 31.91696855 119.8171054 26.26928711 120.56567383 C24.09978428 120.8817941 21.93050202 121.19943283 19.76147461 121.51879883 C18.80354004 121.64931641 17.84560547 121.77983398 16.85864258 121.91430664 C14.26887803 122.26880268 14.26887803 122.26880268 11.39428711 123.31567383 C8.57043121 116.19464591 7.25559146 110.1523554 7.33178711 102.42114258 C7.33952148 101.1365918 7.34725586 99.85204102 7.35522461 98.52856445 C7.36766841 97.1867621 7.38069607 95.84496505 7.39428711 94.50317383 C7.42080149 91.85078837 7.44073567 89.19864272 7.45678711 86.54614258 C7.46838867 85.37462646 7.47999023 84.20311035 7.49194336 82.99609375 C7.70180552 80.39622795 7.70180552 80.39622795 6.39428711 79.31567383 C2.8359863 79.06995996 -0.72142853 78.93128246 -4.28540039 78.79223633 C-7.60571289 78.31567383 -7.60571289 78.31567383 -9.55102539 77.27661133 C-11.28669187 74.04955736 -11.0895604 70.8429222 -10.60571289 67.31567383 C-9.6926683 64.73414895 -8.75797353 62.39971905 -7.60571289 59.94067383 C-5.05429124 54.02199467 -3.2143297 48.77653143 -4.60571289 42.31567383 C-6.38689808 38.3970664 -7.78237158 36.79893938 -11.48071289 34.62817383 C-20.72033756 31.27732282 -30.81525928 29.71101281 -40.60571289 29.31567383 C-41.35240234 29.283125 -42.0990918 29.25057617 -42.8684082 29.21704102 C-65.66161851 28.34478442 -84.964514 33.31051615 -102.60571289 48.31567383 C-103.59571289 48.97567383 -104.58571289 49.63567383 -105.60571289 50.31567383 C-98.88900754 31.72835555 -79.79730673 17.42524301 -62.51464844 9.28637695 C-55.05817125 5.95687328 -47.65500225 3.75975158 -39.60571289 2.31567383 C-38.64536133 2.13665527 -37.68500977 1.95763672 -36.69555664 1.77319336 C-24.52175619 -0.16640516 -12.30091884 -0.02129961 0 0 Z " fill="#D9FC9F" transform="translate(755.605712890625,424.684326171875)"/>
<path d="M0 0 C4.38288363 2.64468245 7.42483064 6.52611216 10.5625 10.5 C11.59538435 11.79870017 12.6365852 13.09084646 13.6875 14.375 C14.12320313 14.92929687 14.55890625 15.48359375 15.0078125 16.0546875 C19.95949695 20.65801224 26.63759839 19.82165216 32.96875 19.9609375 C37.19690485 20.59516073 38.77079033 21.26749406 41.5625 24.5 C42.8098693 28.00091915 43.28876656 31.64025684 43.85742188 35.30078125 C44.64461944 39.48208181 45.04003448 41.05658703 48.40234375 43.91015625 C50.978756 45.20632409 53.49727993 46.40609054 56.1875 47.4375 C60.15271561 49.17979171 62.49309043 50.53363167 64.5625 54.5 C65.89807939 60.68640374 65.44780262 66.30288166 64.5625 72.5 C63.71811247 79.97886098 65.61756875 84.22397301 69.5625 90.5 C72.89205145 96.28290515 75.59679853 101.85413448 74.0859375 108.640625 C72.93862024 112.04475313 71.99304626 114.10533259 69.3125 116.5625 C68.735 117.201875 68.1575 117.84125 67.5625 118.5 C67.75484122 121.85278304 67.75484122 121.85278304 68.5625 125.5 C68.79449894 129.4285154 68.66216375 133.01074161 67.875 136.875 C67.56804525 140.4356751 67.88122845 141.90960393 69 145.1875 C72.35581605 155.72982778 70.81452881 163.50310319 66.03955078 173.20556641 C60.93954268 182.98589215 54.09377704 191.18490941 46.60546875 199.24609375 C42.33756957 203.95465556 39.40155861 208.4901977 36.6875 214.1875 C25.45408316 237.06952119 11.10310984 249.39948811 -12.4375 258.5 C-13.06269531 258.74234375 -13.68789063 258.9846875 -14.33203125 259.234375 C-29.97272329 265.16137409 -48.78198768 269.44138078 -65.4375 265.5 C-64.8257172 262.19047616 -63.64539377 260.2273738 -61.625 257.5625 C-57.61695747 251.69495697 -54.19342573 244.15233658 -54.57324219 236.91259766 C-54.66156229 233.74779412 -54.51198167 231.49021374 -53.4375 228.5 C-49.52835345 224.99676846 -44.99766672 222.88493977 -40.3125 220.625 C-38.98049056 219.94401232 -37.65075079 219.25856809 -36.32324219 218.56884766 C-33.63933388 217.17820831 -30.94721837 215.80608504 -28.24707031 214.44726562 C-22.95925004 211.76820896 -17.82477849 208.83003946 -12.6875 205.875 C-10.84058543 204.82551661 -8.99292481 203.77734508 -7.14453125 202.73046875 C-6.22236816 202.20759277 -5.30020508 201.6847168 -4.35009766 201.14599609 C2.02327452 197.54421275 8.41616712 193.97701776 14.80981445 190.41137695 C19.2876869 187.91078385 23.75754368 185.40282011 28.1796875 182.8046875 C28.83960693 182.41837158 29.49952637 182.03205566 30.17944336 181.6340332 C31.85167026 180.6498031 33.51793608 179.65546335 35.18359375 178.66015625 C35.96863281 178.27730469 36.75367188 177.89445313 37.5625 177.5 C38.2225 177.83 38.8825 178.16 39.5625 178.5 C43.35843976 169.84587793 46.52088147 161.065801 49.47460938 152.09985352 C50.18830088 149.93507075 50.91002499 147.77308874 51.6328125 145.61132812 C60.01452302 120.42550865 63.93767161 97.30444227 51.85766602 72.71289062 C39.42490856 48.66901882 17.83826941 27.52462719 -7.4375 17.5 C-8.571875 16.96375 -9.70625 16.4275 -10.875 15.875 C-15.12828969 14.23337942 -19.39791398 13.33223862 -23.86328125 12.44140625 C-26.4375 11.5 -26.4375 11.5 -27.78125 9.55859375 C-28.735213 6.56610268 -28.80642757 5.38195277 -27.4375 2.5 C-20.13310738 -3.05925448 -8.27028928 -3.60417276 0 0 Z " fill="#43B956" transform="translate(834.4375,418.5)"/>
<path d="M0 0 C0.99 0.495 0.99 0.495 2 1 C1.96519531 1.96679688 1.93039062 2.93359375 1.89453125 3.9296875 C1.68519926 13.99755917 2.34409391 22.38147643 8 31 C8 31.66 8 32.32 8 33 C8.69222656 32.95359375 9.38445312 32.9071875 10.09765625 32.859375 C24.06686385 32.34404191 37.20447804 36.66970793 49 44 C50.71794639 45.61375827 52.40152529 47.26782387 54 49 C53.34515625 48.86722656 52.6903125 48.73445313 52.015625 48.59765625 C36.28563756 45.36998242 36.28563756 45.36998242 21 49 C13.66127418 54.90288816 11.41483012 61.43938224 9.3125 70.25 C6.9987087 79.22853308 4.30089389 84.9808186 -3 91 C-4 88 -4 88 -3 85 C-2.12645656 73.98762456 -3.26597988 65.44605661 -10.125 56.625 C-15.05673273 51.40813497 -20.80904284 49.41848618 -27.8125 48.5 C-42.87737106 49.44155444 -54.35311108 58.0156923 -64.78515625 68.05859375 C-67 70 -67 70 -69 70 C-67.74963541 61.5371665 -62.53699999 54.75785672 -55.875 49.625 C-49.52404152 45.3471068 -42.24360957 41.99920385 -34.68359375 40.55859375 C-34.12800781 40.37425781 -33.57242188 40.18992188 -33 40 C-32.67 39.01 -32.34 38.02 -32 37 C-40.31097656 33.89071701 -48.21095009 33.33984326 -57 33 C-53.0373217 28.20448762 -46.85331668 27.84696158 -41 27 C-31.22848846 26.28166656 -21.53938416 26.64667175 -12 29 C-7.97589244 20.07697889 -7.7749665 10.67644032 -8 1 C-5.26094655 -0.36952673 -3.02912668 -0.12621361 0 0 Z " fill="#096F00" transform="translate(447,0)"/>
<path d="M0 0 C4.38288363 2.64468245 7.42483064 6.52611216 10.5625 10.5 C11.59538435 11.79870017 12.6365852 13.09084646 13.6875 14.375 C14.12320313 14.92929687 14.55890625 15.48359375 15.0078125 16.0546875 C19.95949695 20.65801224 26.63759839 19.82165216 32.96875 19.9609375 C37.19690485 20.59516073 38.77079033 21.26749406 41.5625 24.5 C42.8098693 28.00091915 43.28876656 31.64025684 43.85742188 35.30078125 C44.64461944 39.48208181 45.04003448 41.05658703 48.40234375 43.91015625 C50.978756 45.20632409 53.49727993 46.40609054 56.1875 47.4375 C60.15271561 49.17979171 62.49309043 50.53363167 64.5625 54.5 C65.89807939 60.68640374 65.44780262 66.30288166 64.5625 72.5 C63.71811247 79.97886098 65.61756875 84.22397301 69.5625 90.5 C72.91170079 96.31703296 75.47363224 101.77788195 74.15625 108.60546875 C72.50911753 113.83119261 69.98254755 116.35685508 65.5625 119.5 C64.2425 118.51 62.9225 117.52 61.5625 116.5 C60.5725 116.995 60.5725 116.995 59.5625 117.5 C59.58868408 116.88705078 59.61486816 116.27410156 59.6418457 115.64257812 C60.75835663 85.40915824 49.99379845 64.62079537 29.68359375 42.69140625 C19.29054779 31.95383943 6.46043857 23.01206377 -7.4375 17.5 C-8.571875 16.96375 -9.70625 16.4275 -10.875 15.875 C-15.12828969 14.23337942 -19.39791398 13.33223862 -23.86328125 12.44140625 C-26.4375 11.5 -26.4375 11.5 -27.78125 9.55859375 C-28.735213 6.56610268 -28.80642757 5.38195277 -27.4375 2.5 C-20.13310738 -3.05925448 -8.27028928 -3.60417276 0 0 Z " fill="#59CD5E" transform="translate(834.4375,418.5)"/>
<path d="M0 0 C9.82744598 2.78630056 18.04448936 1.75028063 27.75195312 -0.95507812 C37.47815491 -3.52000233 48.216122 -6.19295252 57.53710938 -0.95117188 C61.6369198 2.10102114 63.18781834 5.35251751 64.75195312 10.04492188 C64.75195312 11.03492188 64.75195312 12.02492188 64.75195312 13.04492188 C62.71021255 12.73290514 60.668564 12.42028618 58.62695312 12.10742188 C57.49 11.93339844 56.35304688 11.759375 55.18164062 11.58007812 C53.07919877 11.25202057 50.97962306 10.90386191 48.8863678 10.52154541 C45.92911523 10.0718614 43.15927833 9.90558509 40.17163086 9.88378906 C39.09868271 9.87418152 38.02573456 9.86457397 36.92027283 9.85467529 C35.77031326 9.85042542 34.6203537 9.84617554 33.43554688 9.84179688 C32.22866714 9.8360968 31.02178741 9.83039673 29.77833557 9.82452393 C27.21885042 9.815085 24.65935317 9.80854435 22.09985352 9.8046875 C18.25514213 9.79508592 14.41098991 9.76409509 10.56640625 9.73242188 C-17.05429435 9.61323267 -39.33011107 12.77083935 -63.24804688 27.04492188 C-63.90804687 27.37492187 -64.56804688 27.70492188 -65.24804688 28.04492188 C-67.34179688 27.30273438 -67.34179688 27.30273438 -69.74804688 26.16992188 C-70.93914063 25.61691406 -70.93914063 25.61691406 -72.15429688 25.05273438 C-73.52377812 24.39354378 -74.88863196 23.72462933 -76.24804688 23.04492188 C-75.05923604 17.53316256 -73.68078937 14.812753 -69.24804688 11.04492188 C-66.59778289 9.71978988 -64.54119695 9.90104977 -61.57617188 9.86914062 C-60.43664062 9.84529297 -59.29710937 9.82144531 -58.12304688 9.796875 C-55.72218132 9.7541872 -53.32108641 9.72278519 -50.91992188 9.703125 C-42.27663358 9.53507369 -42.27663358 9.53507369 -35.24804688 5.04492188 C-34.46429687 4.03429687 -33.68054688 3.02367187 -32.87304688 1.98242188 C-23.92870628 -8.02672117 -11.09273567 -3.37284112 0 0 Z " fill="#8DE359" transform="translate(742.248046875,415.955078125)"/>
<path d="M0 0 C0.66 0.66 1.32 1.32 2 2 C1.154375 2.76183594 0.30875 3.52367187 -0.5625 4.30859375 C-18.10886647 20.22002856 -30.93445493 37.40197295 -36 61 C-36.33 60.01 -36.66 59.02 -37 58 C-38.06541016 57.90912109 -38.06541016 57.90912109 -39.15234375 57.81640625 C-40.07144531 57.73261719 -40.99054687 57.64882813 -41.9375 57.5625 C-42.85402344 57.48128906 -43.77054688 57.40007812 -44.71484375 57.31640625 C-47 57 -47 57 -48 56 C-49.31010963 43.97276406 -45.02913596 36.84539289 -37.70703125 27.67578125 C-35.77160532 24.64199003 -35.17269553 22.58343214 -35 19 C-35.70516105 16.85057716 -35.70516105 16.85057716 -36.9375 15 C-38.86930241 11.44710465 -39.80461449 9.11247406 -39 5 C-36.19338655 0.8301743 -33.88991307 -1.6880721 -29 -3 C-18.81450755 -4.92504371 -9.25917254 -5.14607156 0 0 Z " fill="#59CD5E" transform="translate(675,442)"/>
<path d="M0 0 C4.2477177 0.84954354 5.71201592 2.40088685 8.4375 5.6875 C8.7675 6.0175 9.0975 6.3475 9.4375 6.6875 C10.33827672 11.79570218 9.85016548 15.68230889 6.9375 20 C5.78244049 21.5710999 4.61464263 23.13287703 3.4375 24.6875 C-5.98659068 38.01121442 -9.50823699 49.86381823 -12.5625 65.6875 C-16.4140625 64.890625 -16.4140625 64.890625 -17.75 63.0625 C-23.04839778 47.57487571 -20.21302664 27.60924131 -13.25 13.25 C-6.91349549 1.33418334 -6.91349549 1.33418334 0 0 Z " fill="#FD6565" transform="translate(372.5625,77.3125)"/>
<path d="M0 0 C0.89244917 3.00686719 1.02755796 5.50264703 0.875 8.625 C0.79715251 16.15396463 2.87398175 22.71273409 7 29 C7 29.66 7 30.32 7 31 C7.69222656 30.95359375 8.38445312 30.9071875 9.09765625 30.859375 C23.06686385 30.34404191 36.20447804 34.66970793 48 42 C49.71794639 43.61375827 51.40152529 45.26782387 53 47 C52.01773438 46.80083984 52.01773438 46.80083984 51.015625 46.59765625 C35.28563756 43.36998242 35.28563756 43.36998242 20 47 C12.66127418 52.90288816 10.41483012 59.43938224 8.3125 68.25 C5.9987087 77.22853308 3.30089389 82.9808186 -4 89 C-4.33 88.01 -4.66 87.02 -5 86 C-4.0570388 84.30041124 -3.04786908 82.63699364 -2 81 C-1.24233471 79.2286308 -0.53382028 77.43545889 0.125 75.625 C0.62386719 74.28308594 0.62386719 74.28308594 1.1328125 72.9140625 C5.5562416 58.0497467 3.13228329 43.11787546 -0.84570312 28.52197266 C-3.50081345 18.61352524 -5.2361235 9.38138794 0 0 Z " fill="#0A4A00" transform="translate(448,2)"/>
</svg>
