<?xml version="1.0" encoding="UTF-8"?>
<svg version="1.1" xmlns="http://www.w3.org/2000/svg" width="321" height="323">
<path d="M0 0 C1.20849609 -0.00386719 1.20849609 -0.00386719 2.44140625 -0.0078125 C4.4375 0.125 4.4375 0.125 5.4375 1.125 C5.4332672 2.98319705 5.42194384 4.84169287 5.37182617 6.69921875 C5.05661424 18.92373411 7.34164268 27.51396039 13.4375 38.125 C14.74231323 38.0935791 14.74231323 38.0935791 16.07348633 38.06152344 C37.70417876 37.61002077 57.3412767 38.0615023 77.4375 47.125 C78.58734375 47.63933594 79.7371875 48.15367188 80.921875 48.68359375 C110.25167464 62.54800777 131.99212983 89.41981263 143.21679688 119.50634766 C156.06849288 155.8956869 153.84120204 197.22441519 137.4375 232.125 C132.38627153 242.58197452 126.84764746 252.12611692 119.4375 261.125 C118.75083252 261.96973877 118.75083252 261.96973877 118.05029297 262.83154297 C93.77183922 292.58096891 61.50128591 311.06300356 24.4375 320.125 C23.72932129 320.30434082 23.02114258 320.48368164 22.29150391 320.66845703 C-18.53543278 330.59666888 -63.23324678 319.52176168 -98.56298828 298.3671875 C-103.51145388 295.2929759 -108.06488986 291.81796427 -112.5625 288.125 C-113.1188916 287.67398926 -113.6752832 287.22297852 -114.24853516 286.75830078 C-145.04412177 261.6854121 -164.6645164 227.4336612 -169.04467773 187.77270508 C-171.82204265 158.15757877 -167.17779985 129.18359781 -152.5625 103.125 C-152.21316406 102.48723633 -151.86382812 101.84947266 -151.50390625 101.19238281 C-146.19594597 91.56319846 -140.0223624 83.19135528 -132.5625 75.125 C-132.08941406 74.60808594 -131.61632812 74.09117188 -131.12890625 73.55859375 C-114.24779236 55.30503157 -92.42268095 42.90878336 -67.81640625 38.65234375 C-65.38495602 38.08346025 -63.37233573 37.20705053 -61.125 36.125 C-48.10397533 30.08756987 -30.44990706 30.46300874 -16.65625 33.6875 C-14.26642264 34.26135843 -14.26642264 34.26135843 -10.5625 34.125 C-10.079441 32.73050891 -9.60124483 31.33433293 -9.125 29.9375 C-8.85816406 29.16019531 -8.59132812 28.38289063 -8.31640625 27.58203125 C-6.52696903 21.75013482 -6.44127744 16.3699582 -6.5 10.3125 C-6.50676758 8.98702148 -6.50676758 8.98702148 -6.51367188 7.63476562 C-6.52540134 5.46481441 -6.54333505 3.29489828 -6.5625 1.125 C-4.1828388 -0.0648306 -2.64764265 -0.00849966 0 0 Z " fill="#C53635" transform="translate(169.5625,-0.125)"/>
<path d="M0 0 C0.66 0 1.32 0 2 0 C20.89102877 35.33221231 23.5309239 75.75697775 12 114 C6.73298855 130.54225935 -1.91421362 146.66466282 -13 160 C-13.45632813 160.56025879 -13.91265625 161.12051758 -14.3828125 161.69775391 C-38.66077403 191.45286251 -70.93202917 209.93698036 -108 219 C-108.70817871 219.17934082 -109.41635742 219.35868164 -110.14599609 219.54345703 C-139.09235338 226.58257362 -170.17704999 222.05931671 -198 213 C-198 212.34 -198 211.68 -198 211 C-198.54454834 210.83564453 -199.08909668 210.67128906 -199.65014648 210.50195312 C-205.43683054 208.6755561 -210.71198176 206.35028132 -216.0625 203.5 C-217.29250732 202.84632446 -217.29250732 202.84632446 -218.54736328 202.17944336 C-231.77016419 195.00591417 -243.96973853 186.23698924 -255 176 C-255 175.67 -255 175.34 -255 175 C-254.30922363 175.06928711 -253.61844727 175.13857422 -252.90673828 175.20996094 C-244.55980441 175.98341136 -236.25512042 176.24143176 -227.875 176.25 C-226.83685654 176.25151062 -226.83685654 176.25151062 -225.77774048 176.25305176 C-212.04033376 176.2396803 -198.57856015 175.15261287 -185 173 C-184.15228027 172.86609863 -183.30456055 172.73219727 -182.43115234 172.59423828 C-139.53218228 165.4516247 -99.18426808 143.97948504 -68 114 C-67.40396973 113.43120117 -66.80793945 112.86240234 -66.19384766 112.27636719 C-57.30730096 103.75426747 -49.22516009 94.97517461 -42 85 C-41.5467334 84.37512695 -41.0934668 83.75025391 -40.62646484 83.10644531 C-33.44510573 73.1143339 -26.97810177 62.75235171 -21 52 C-20.65904297 51.39349609 -20.31808594 50.78699219 -19.96679688 50.16210938 C-11.37029977 34.66106986 -4.71201829 17.06256538 0 0 Z " fill="#AA0F0F" transform="translate(302,101)"/>
<path d="M0 0 C1.20849609 -0.00386719 1.20849609 -0.00386719 2.44140625 -0.0078125 C4.4375 0.125 4.4375 0.125 5.4375 1.125 C5.4332672 2.98319705 5.42194384 4.84169287 5.37182617 6.69921875 C5.16626892 14.67111827 5.56811822 21.58985877 8.4375 29.125 C8.66179687 29.98222656 8.88609375 30.83945312 9.1171875 31.72265625 C10.18311366 34.69875981 10.96303958 36.12466064 13.4375 38.125 C17.83898622 39.08839584 22.11208596 39.39993162 26.59765625 39.69140625 C41.40320269 40.75335782 56.90369583 48.06272529 68.4375 57.125 C68.1075 57.785 67.7775 58.445 67.4375 59.125 C66.36822266 58.81755859 66.36822266 58.81755859 65.27734375 58.50390625 C51.9173849 54.74585591 40.27004875 53.06180334 27.4375 59.125 C25.9525 59.62 25.9525 59.62 24.4375 60.125 C23.37322702 61.97155234 23.37322702 61.97155234 22.4375 64.125 C21.99792969 64.74375 21.55835938 65.3625 21.10546875 66 C17.07656973 71.78290519 15.45947197 77.41147001 13.9375 84.1875 C11.37766145 95.40154224 7.57391945 101.99859283 -1.5625 109.125 C-1.40523438 108.32320313 -1.24796875 107.52140625 -1.0859375 106.6953125 C0.87839032 93.2968377 0.48451846 81.00111136 -7.32421875 69.5390625 C-12.86343017 62.59538571 -18.47896216 59.73675695 -27.23046875 58.68359375 C-43.32228926 57.64931809 -56.59225763 64.99894431 -68.5625 75.125 C-71.09874544 77.51641806 -73.53036798 79.9434731 -75.890625 82.5078125 C-77.5625 84.125 -77.5625 84.125 -79.5625 84.125 C-79.22972665 77.80230631 -75.94314748 73.2608174 -72.5625 68.125 C-71.985 67.238125 -71.4075 66.35125 -70.8125 65.4375 C-61.34196274 55.70389226 -48.27750065 51.07103468 -35.5625 47.125 C-35.8925 46.135 -36.2225 45.145 -36.5625 44.125 C-38.48775653 43.13315397 -38.48775653 43.13315397 -40.8125 42.5 C-41.58078125 42.26023438 -42.3490625 42.02046875 -43.140625 41.7734375 C-48.20724604 40.41689058 -53.1464462 39.86770745 -58.375 39.5625 C-59.41430664 39.49772461 -59.41430664 39.49772461 -60.47460938 39.43164062 C-62.17038686 39.32638547 -63.86642052 39.22527137 -65.5625 39.125 C-63.11069801 36.18939761 -60.91924131 35.4236541 -57.25 34.5 C-56.32574219 34.26023438 -55.40148437 34.02046875 -54.44921875 33.7734375 C-48.17788889 32.364722 -42.28241715 31.93269684 -35.875 31.9375 C-34.988125 31.93685547 -34.10125 31.93621094 -33.1875 31.93554688 C-27.53016867 31.98110372 -22.18455597 32.39516873 -16.65625 33.6875 C-14.26642264 34.26135843 -14.26642264 34.26135843 -10.5625 34.125 C-10.079441 32.73050891 -9.60124483 31.33433293 -9.125 29.9375 C-8.85816406 29.16019531 -8.59132813 28.38289063 -8.31640625 27.58203125 C-6.52696903 21.75013482 -6.44127744 16.3699582 -6.5 10.3125 C-6.50451172 9.42884766 -6.50902344 8.54519531 -6.51367188 7.63476562 C-6.52540134 5.46481441 -6.54333505 3.29489828 -6.5625 1.125 C-4.1828388 -0.0648306 -2.64764265 -0.00849966 0 0 Z " fill="#0A6F00" transform="translate(169.5625,-0.125)"/>
<path d="M0 0 C3.41686221 1.07503318 5.1655152 2.77753803 7.26171875 5.6328125 C9.43813507 10.02670959 9.11771401 14.12839964 7.6640625 18.72265625 C5.87920966 22.71043558 3.4196727 25.83940527 0.609375 29.16015625 C-9.07763058 41.00184158 -13.92645075 53.85747755 -16.703125 68.72265625 C-17.11212622 70.57852886 -17.52707067 72.43312416 -17.953125 74.28515625 C-18.200625 75.41953125 -18.448125 76.55390625 -18.703125 77.72265625 C-20.023125 77.72265625 -21.343125 77.72265625 -22.703125 77.72265625 C-29.51696117 62.90996893 -28.68138336 42.93177083 -24.10546875 27.4453125 C-13.06692844 -1.85755355 -13.06692844 -1.85755355 0 0 Z " fill="#FE6565" transform="translate(86.703125,93.27734375)"/>
<path d="M0 0 C0.33 0 0.66 0 1 0 C0.94779297 1.54107422 0.94779297 1.54107422 0.89453125 3.11328125 C0.69300234 11.56624275 0.99085622 18.98404557 4 27 C4.22429687 27.85851562 4.44859375 28.71703125 4.6796875 29.6015625 C5.74632269 32.57492608 6.52725041 34.00104367 9 36 C13.40148622 36.96339584 17.67458596 37.27493162 22.16015625 37.56640625 C36.96570269 38.62835782 52.46619583 45.93772529 64 55 C63.505 55.99 63.505 55.99 63 57 C62.28714844 56.79503906 61.57429688 56.59007812 60.83984375 56.37890625 C47.4798849 52.62085591 35.83254875 50.93680334 23 57 C21.515 57.495 21.515 57.495 20 58 C18.93572702 59.84655234 18.93572702 59.84655234 18 62 C17.56042969 62.61875 17.12085938 63.2375 16.66796875 63.875 C12.63906973 69.65790519 11.02197197 75.28647001 9.5 82.0625 C6.94016145 93.27654224 3.13641945 99.87359283 -6 107 C-5.67 105.02 -5.34 103.04 -5 101 C-4.34 101 -3.68 101 -3 101 C-2.29261405 98.72243161 -1.60446396 96.44100625 -0.93359375 94.15234375 C-0.28709122 91.96938331 0.38950264 89.79519435 1.08984375 87.62890625 C6.34612064 70.25139297 4.00878415 54.08980081 -0.3125 36.68359375 C-0.5391333 35.76231689 -0.7657666 34.84104004 -0.99926758 33.8918457 C-1.44448991 32.10195401 -1.90187168 30.31502432 -2.3737793 28.53198242 C-4.42358577 20.42140106 -5.24460993 12.78373669 -2 4.875 C-1.62875 3.94429688 -1.2575 3.01359375 -0.875 2.0546875 C-0.58625 1.37664062 -0.2975 0.69859375 0 0 Z " fill="#0A4A00" transform="translate(174,2)"/>
</svg>
